{
  "accessors": [
    {
      "bufferView": 1,
      "componentType": 5126,
      "count": 2721,
      "max": [
        0.9529899954795837,
        0.9529899954795837,
        0.9879800081253052
      ],
      "min": [
        -0.9529899954795837,
        -0.9529899954795837,
        -1.5063999891281128
      ],
      "type": "VEC3"
    },
    {
      "bufferView": 1,
      "byteOffset": 32652,
      "componentType": 5126,
      "count": 2721,
      "max": [
        1.0,
        1.0,
        1.0
      ],
      "min": [
        -1.0,
        -1.0,
        -0.9243775606155396
      ],
      "type": "VEC3"
    },
    {
      "bufferView": 0,
      "componentType": 5125,
      "count": 16128,
      "type": "SCALAR"
    },
    {
      "bufferView": 1,
      "byteOffset": 65304,
      "componentType": 5126,
      "count": 5393,
      "max": [
        0.4582599997520447,
        0.4582599997520447,
        -1.5063999891281128
      ],
      "min": [
        -0.4582599997520447,
        -0.4582599997520447,
        -2.407979965209961
      ],
      "type": "VEC3"
    },
    {
      "bufferView": 1,
      "byteOffset": 130020,
      "componentType": 5126,
      "count": 5393,
      "max": [
        0.9999987483024597,
        0.9999879002571106,
        0.8811153173446655
      ],
      "min": [
        -0.9999979138374329,
        -0.9999999403953552,
        -1.0
      ],
      "type": "VEC3"
    },
    {
      "bufferView": 0,
      "byteOffset": 64512,
      "componentType": 5125,
      "count": 31776,
      "type": "SCALAR"
    },
    {
      "bufferView": 1,
      "byteOffset": 194736,
      "componentType": 5126,
      "count": 320,
      "max": [
        0.2583799958229065,
        0.2583799958229065,
        -2.293610095977783
      ],
      "min": [
        -0.2583799958229065,
        -0.2583799958229065,
        -2.3814001083374023
      ],
      "type": "VEC3"
    },
    {
      "bufferView": 1,
      "byteOffset": 198576,
      "componentType": 5126,
      "count": 320,
      "max": [
        0.7392989993095398,
        0.7392989993095398,
        -0.6733360886573792
      ],
      "min": [
        -0.7392989993095398,
        -0.7392989993095398,
        -0.7033779621124268
      ],
      "type": "VEC3"
    },
    {
      "bufferView": 0,
      "byteOffset": 191616,
      "componentType": 5125,
      "count": 1536,
      "type": "SCALAR"
    },
    {
      "bufferView": 1,
      "byteOffset": 202416,
      "componentType": 5126,
      "count": 695,
      "max": [
        1.0352699756622314,
        0.6602100133895874,
        3.339279890060425
      ],
      "min": [
        -1.0372899770736694,
        -0.6602100133895874,
        -5.834070205688477
      ],
      "type": "VEC3"
    },
    {
      "bufferView": 1,
      "byteOffset": 210756,
      "componentType": 5126,
      "count": 695,
      "max": [
        1.0,
        0.9999882578849792,
        1.0
      ],
      "min": [
        -1.0,
        -0.9999882578849792,
        -0.9999997019767761
      ],
      "type": "VEC3"
    },
    {
      "bufferView": 0,
      "byteOffset": 197760,
      "componentType": 5125,
      "count": 4128,
      "type": "SCALAR"
    },
    {
      "bufferView": 1,
      "byteOffset": 219096,
      "componentType": 5126,
      "count": 296,
      "max": [
        1.6570899486541748,
        0.05998999997973442,
        0.016540000215172768
      ],
      "min": [
        -1.6570899486541748,
        -6.134160041809082,
        -0.11745999753475189
      ],
      "type": "VEC3"
    },
    {
      "bufferView": 1,
      "byteOffset": 222648,
      "componentType": 5126,
      "count": 296,
      "max": [
        0.9999727606773376,
        0.948983907699585,
        1.0
      ],
      "min": [
        -0.9999727606773376,
        -0.43267449736595154,
        -1.0
      ],
      "type": "VEC3"
    },
    {
      "bufferView": 0,
      "byteOffset": 214272,
      "componentType": 5125,
      "count": 1728,
      "type": "SCALAR"
    },
    {
      "bufferView": 1,
      "byteOffset": 226200,
      "componentType": 5126,
      "count": 876,
      "max": [
        0.744949996471405,
        0.2422100007534027,
        0.6380800008773804
      ],
      "min": [
        -0.744949996471405,
        -2.0076398849487305,
        -0.4539099931716919
      ],
      "type": "VEC3"
    },
    {
      "bufferView": 1,
      "byteOffset": 236712,
      "componentType": 5126,
      "count": 876,
      "max": [
        0.9994897842407227,
        0.9243417382240295,
        0.9912128448486328
      ],
      "min": [
        -0.9994897842407227,
        -0.9244539141654968,
        -0.9902282953262329
      ],
      "type": "VEC3"
    },
    {
      "bufferView": 0,
      "byteOffset": 221184,
      "componentType": 5125,
      "count": 5184,
      "type": "SCALAR"
    },
    {
      "bufferView": 1,
      "byteOffset": 247224,
      "componentType": 5126,
      "count": 3845,
      "max": [
        1.505429983139038,
        3.2119500637054443,
        14.600509643554688
      ],
      "min": [
        -1.0482100248336792,
        -4.734000205993652,
        -11.401240348815918
      ],
      "type": "VEC3"
    },
    {
      "bufferView": 1,
      "byteOffset": 293364,
      "componentType": 5126,
      "count": 3845,
      "max": [
        0.9999721646308899,
        0.9999498724937439,
        0.999617874622345
      ],
      "min": [
        -0.9986555576324463,
        -0.9999808669090271,
        -0.9984512329101563
      ],
      "type": "VEC3"
    },
    {
      "bufferView": 0,
      "byteOffset": 241920,
      "componentType": 5125,
      "count": 23040,
      "type": "SCALAR"
    }
  ],
  "asset": {
    "extras": {
      "author": "lascoyt (https://sketchfab.com/lascoyt)",
      "license": "CC-BY-4.0 (http://creativecommons.org/licenses/by/4.0/)",
      "source": "https://sketchfab.com/3d-models/incandescent-light-bulb-36898e66c1d941efa24d7d6aea915a0b",
      "title": "Incandescent Light Bulb"
    },
    "generator": "Sketchfab-12.68.0",
    "version": "2.0"
  },
  "bufferViews": [
    {
      "buffer": 0,
      "byteLength": 334080,
      "name": "floatBufferViews",
      "target": 34963
    },
    {
      "buffer": 0,
      "byteLength": 339504,
      "byteOffset": 334080,
      "byteStride": 12,
      "name": "floatBufferViews",
      "target": 34962
    }
  ],
  "buffers": [
    {
      "byteLength": 673584,
      "uri": "scene.bin"
    }
  ],
  "extensionsUsed": [
    "KHR_materials_transmission"
  ],
  "materials": [
    {
      "doubleSided": true,
      "emissiveFactor": [
        1.0,
        1.0,
        1.0
      ],
      "name": "wire_spiral",
      "pbrMetallicRoughness": {
        "baseColorFactor": [
          1.0,
          0.7575151472,
          0.310345886,
          1.0
        ],
        "metallicFactor": 0.0,
        "roughnessFactor": 0.0
      }
    },
    {
      "doubleSided": true,
      "name": "Material.003",
      "pbrMetallicRoughness": {
        "baseColorFactor": [
          0.0468900043031953,
          0.04474403811229378,
          0.04474403811229378,
          1.0
        ],
        "roughnessFactor": 0.3248856707
      }
    },
    {
      "alphaMode": "BLEND",
      "doubleSided": true,
      "name": "Material.001",
      "pbrMetallicRoughness": {
        "baseColorFactor": [
          0.5992759146,
          0.5992759146,
          0.5992759146,
          0.15
        ],
        "roughnessFactor": 0.0
      }
    },
    {
      "doubleSided": true,
      "name": "Material.004",
      "pbrMetallicRoughness": {
        "baseColorFactor": [
          0.2759235625,
          0.2759235625,
          0.2759235625,
          1.0
        ],
        "roughnessFactor": 0.2943978659
      }
    },
    {
      "alphaMode": "BLEND",
      "doubleSided": true,
      "extensions": {
        "KHR_materials_transmission": {
          "transmissionFactor": 0.9373094512
        }
      },
      "name": "Material",
      "pbrMetallicRoughness": {
        "baseColorFactor": [
          1.0,
          1.0,
          1.0,
          0.25
        ],
        "metallicFactor": 0.6297637195,
        "roughnessFactor": 0.0
      }
    }
  ],
  "meshes": [
    {
      "name": "Sphere_0",
      "primitives": [
        {
          "attributes": {
            "NORMAL": 1,
            "POSITION": 0
          },
          "indices": 2,
          "material": 4,
          "mode": 4
        }
      ]
    },
    {
      "name": "Sphere.001_0",
      "primitives": [
        {
          "attributes": {
            "NORMAL": 4,
            "POSITION": 3
          },
          "indices": 5,
          "material": 3,
          "mode": 4
        }
      ]
    },
    {
      "name": "Sphere.001_1",
      "primitives": [
        {
          "attributes": {
            "NORMAL": 7,
            "POSITION": 6
          },
          "indices": 8,
          "material": 1,
          "mode": 4
        }
      ]
    },
    {
      "name": "Cube_0",
      "primitives": [
        {
          "attributes": {
            "NORMAL": 10,
            "POSITION": 9
          },
          "indices": 11,
          "material": 2,
          "mode": 4
        }
      ]
    },
    {
      "name": "BezierCurve_0",
      "primitives": [
        {
          "attributes": {
            "NORMAL": 13,
            "POSITION": 12
          },
          "indices": 14,
          "material": 1,
          "mode": 4
        }
      ]
    },
    {
      "name": "BezierCurve.001_0",
      "primitives": [
        {
          "attributes": {
            "NORMAL": 16,
            "POSITION": 15
          },
          "indices": 17,
          "material": 1,
          "mode": 4
        }
      ]
    },
    {
      "name": "Cylinder_0",
      "primitives": [
        {
          "attributes": {
            "NORMAL": 19,
            "POSITION": 18
          },
          "indices": 20,
          "material": 0,
          "mode": 4
        }
      ]
    }
  ],
  "nodes": [
    {
      "children": [
        1
      ],
      "matrix": [
        0.056578751653432846,
        0.0,
        0.0,
        0.0,
        0.0,
        1.2563006558037958e-17,
        -0.056578751653432846,
        0.0,
        0.0,
        0.056578751653432846,
        1.2563006558037958e-17,
        0.0,
        0.0,
        0.0,
        0.0,
        1.0
      ],
      "name": "Sketchfab_model"
    },
    {
      "children": [
        2,
        4,
        6,
        9,
        11,
        13,
        15
      ],
      "name": "Root"
    },
    {
      "children": [
        3
      ],
      "matrix": [
        -0.29086000000000006,
        0.9551700000000001,
        -0.05519000000000001,
        0.0,
        -0.7711,
        -0.19988000000000003,
        0.6045200000000001,
        0.0,
        0.5663900000000001,
        0.21839000000000003,
        0.7946700000000001,
        0.0,
        10.71745,
        1.00545,
        16.81173,
        1.0
      ],
      "name": "Lamp"
    },
    {
      "name": "Lamp"
    },
    {
      "children": [
        5
      ],
      "matrix": [
        3.7601600000000004,
        0.0,
        0.0,
        0.0,
        0.0,
        3.7601600000000004,
        0.0,
        0.0,
        0.0,
        0.0,
        3.7601600000000004,
        0.0,
        0.0,
        0.0,
        0.0,
        1.0
      ],
      "name": "Sphere"
    },
    {
      "mesh": 0,
      "name": "Sphere_0"
    },
    {
      "children": [
        7,
        8
      ],
      "matrix": [
        3.7601600000000004,
        0.0,
        0.0,
        0.0,
        0.0,
        3.7601600000000004,
        0.0,
        0.0,
        0.0,
        0.0,
        3.7601600000000004,
        0.0,
        0.0,
        0.0,
        0.0,
        1.0
      ],
      "name": "Sphere.001"
    },
    {
      "mesh": 1,
      "name": "Sphere.001_0"
    },
    {
      "mesh": 2,
      "name": "Sphere.001_1"
    },
    {
      "children": [
        10
      ],
      "matrix": [
        0.6529100000000001,
        0.0,
        0.0,
        0.0,
        0.0,
        0.6529100000000001,
        0.0,
        0.0,
        0.0,
        0.0,
        0.6529100000000001,
        0.0,
        0.03839000000000001,
        0.0,
        -3.5563399999999996,
        1.0
      ],
      "name": "Cube"
    },
    {
      "mesh": 3,
      "name": "Cube_0"
    },
    {
      "children": [
        12
      ],
      "matrix": [
        1.0,
        0.0,
        0.0,
        0.0,
        0.0,
        0.0,
        1.0,
        0.0,
        0.0,
        -1.0,
        0.0,
        0.0,
        0.0,
        0.0,
        0.0,
        1.0
      ],
      "name": "BezierCurve"
    },
    {
      "mesh": 4,
      "name": "BezierCurve_0"
    },
    {
      "children": [
        14
      ],
      "matrix": [
        1.0,
        0.0,
        0.0,
        0.0,
        0.0,
        0.0,
        1.0,
        0.0,
        0.0,
        -1.0,
        0.0,
        0.0,
        0.0,
        0.6317100000000001,
        0.0,
        1.0
      ],
      "name": "BezierCurve.001"
    },
    {
      "mesh": 5,
      "name": "BezierCurve.001_0"
    },
    {
      "children": [
        16
      ],
      "matrix": [
        0.0,
        0.0,
        -0.12528,
        0.0,
        0.0,
        0.12528,
        0.0,
        0.0,
        0.12528,
        0.0,
        0.0,
        0.0,
        -0.17006000000000002,
        0.5687500000000001,
        -0.06275000000000001,
        1.0
      ],
      "name": "Cylinder"
    },
    {
      "mesh": 6,
      "name": "Cylinder_0"
    }
  ],
  "scene": 0,
  "scenes": [
    {
      "name": "Sketchfab_Scene",
      "nodes": [
        0
      ]
    }
  ]
}
