<svg xmlns="http://www.w3.org/2000/svg" xmlns:xlink="http://www.w3.org/1999/xlink" width="500" zoomAndPan="magnify" viewBox="0 0 375 374.999991" height="500" preserveAspectRatio="xMidYMid meet" version="1.0"><defs><clipPath id="1f39fbedcd"><path d="M 231 77 L 371 77 L 371 217 L 231 217 Z M 231 77 " clip-rule="nonzero"/></clipPath><clipPath id="1936dc4f49"><path d="M 112.539062 -37.71875 L 409.011719 102.007812 L 262.566406 412.726562 L -33.90625 273 Z M 112.539062 -37.71875 " clip-rule="nonzero"/></clipPath><clipPath id="1ef9e294a8"><path d="M 112.539062 -37.71875 L 409.011719 102.007812 L 262.566406 412.726562 L -33.90625 273 Z M 112.539062 -37.71875 " clip-rule="nonzero"/></clipPath><clipPath id="7ac3b11d30"><path d="M 256 50 L 314 50 L 314 108 L 256 108 Z M 256 50 " clip-rule="nonzero"/></clipPath><clipPath id="ed27a4e7ba"><path d="M 112.539062 -37.71875 L 409.011719 102.007812 L 262.566406 412.726562 L -33.90625 273 Z M 112.539062 -37.71875 " clip-rule="nonzero"/></clipPath><clipPath id="102b744cea"><path d="M 112.539062 -37.71875 L 409.011719 102.007812 L 262.566406 412.726562 L -33.90625 273 Z M 112.539062 -37.71875 " clip-rule="nonzero"/></clipPath><clipPath id="a72e1fe62a"><path d="M 53 58 L 230 58 L 230 344 L 53 344 Z M 53 58 " clip-rule="nonzero"/></clipPath><clipPath id="308fae9f61"><path d="M 112.539062 -37.71875 L 409.011719 102.007812 L 262.566406 412.726562 L -33.90625 273 Z M 112.539062 -37.71875 " clip-rule="nonzero"/></clipPath><clipPath id="e2c437cba9"><path d="M 112.539062 -37.71875 L 409.011719 102.007812 L 262.566406 412.726562 L -33.90625 273 Z M 112.539062 -37.71875 " clip-rule="nonzero"/></clipPath><clipPath id="ed636b29aa"><path d="M 79.984375 31.488281 L 229.46875 101.941406 L 115.515625 343.726562 L -33.972656 273.273438 Z M 79.984375 31.488281 " clip-rule="nonzero"/></clipPath><clipPath id="d2d5117bc8"><path d="M 79.984375 31.488281 L 229.46875 101.941406 L 115.640625 343.460938 L -33.84375 273.003906 Z M 79.984375 31.488281 " clip-rule="nonzero"/></clipPath><clipPath id="489f399239"><path d="M 115 229 L 350 229 L 350 344 L 115 344 Z M 115 229 " clip-rule="nonzero"/></clipPath><clipPath id="642b900700"><path d="M 112.539062 -37.71875 L 409.011719 102.007812 L 262.566406 412.726562 L -33.90625 273 Z M 112.539062 -37.71875 " clip-rule="nonzero"/></clipPath><clipPath id="a0b1fe5489"><path d="M 112.539062 -37.71875 L 409.011719 102.007812 L 262.566406 412.726562 L -33.90625 273 Z M 112.539062 -37.71875 " clip-rule="nonzero"/></clipPath><clipPath id="962390429f"><path d="M 201.882812 159.546875 L 349.230469 228.988281 L 262.5 413.003906 L 115.15625 343.558594 Z M 201.882812 159.546875 " clip-rule="nonzero"/></clipPath><clipPath id="acf1083e8a"><path d="M 201.882812 159.546875 L 349.117188 228.9375 L 262.519531 412.683594 L 115.285156 343.292969 Z M 201.882812 159.546875 " clip-rule="nonzero"/></clipPath></defs><g clip-path="url(#1f39fbedcd)"><g clip-path="url(#1936dc4f49)"><g clip-path="url(#1ef9e294a8)"><path fill="#a6a6a6" d="M 267.203125 216.167969 C 295.960938 149.988281 294.929688 147.046875 231.070312 113.378906 C 297.28125 142.152344 300.21875 141.121094 333.875 77.289062 C 305.117188 143.472656 306.148438 146.410156 370.007812 180.082031 C 303.796875 151.304688 300.859375 152.335938 267.203125 216.167969 " fill-opacity="1" fill-rule="nonzero"/></g></g></g><g clip-path="url(#7ac3b11d30)"><g clip-path="url(#ed27a4e7ba)"><g clip-path="url(#102b744cea)"><path fill="#59788e" d="M 271.074219 107.984375 C 283.0625 80.398438 282.632812 79.175781 256.015625 65.140625 C 283.613281 77.132812 284.835938 76.703125 298.867188 50.097656 C 286.878906 77.683594 287.308594 78.90625 313.925781 92.941406 C 286.328125 80.949219 285.105469 81.378906 271.074219 107.984375 " fill-opacity="1" fill-rule="nonzero"/></g></g></g><g clip-path="url(#a72e1fe62a)"><g clip-path="url(#308fae9f61)"><g clip-path="url(#e2c437cba9)"><g clip-path="url(#ed636b29aa)"><g clip-path="url(#d2d5117bc8)"><path fill="#59788e" d="M 115.308594 343.300781 L 53.808594 87.027344 L 136.925781 58.40625 L 229.105469 101.851562 L 135.035156 93.230469 L 92.078125 108.023438 L 137.328125 296.582031 L 115.308594 343.300781 " fill-opacity="1" fill-rule="nonzero"/></g></g></g></g></g><g clip-path="url(#489f399239)"><g clip-path="url(#642b900700)"><g clip-path="url(#a0b1fe5489)"><g clip-path="url(#962390429f)"><g clip-path="url(#acf1083e8a)"><path fill="#a6a6a6" d="M 115.308594 343.300781 L 137.328125 296.582031 L 349.03125 229.125 L 115.308594 343.300781 " fill-opacity="1" fill-rule="nonzero"/></g></g></g></g></g></svg>