<!-- Uploaded from Canvas -->
<?xml version="1.0" encoding="UTF-8" standalone="no"?>
<svg xmlns="http://www.w3.org/2000/svg" xmlns:xlink="http://www.w3.org/1999/xlink" width="500" zoomAndPan="magnify" viewBox="0 0 375 374.999991" height="500" preserveAspectRatio="xMidYMid meet" version="1.0"><defs><clipPath id="23b656a045"><path d="M 222 99 L 333 99 L 333 211 L 222 211 Z M 222 99 " clip-rule="nonzero"/></clipPath><clipPath id="5944a254e1"><path d="M 127.710938 7.875 L 363.804688 119.144531 L 247.097656 366.769531 L 11.003906 255.5 Z M 127.710938 7.875 " clip-rule="nonzero"/></clipPath><clipPath id="c56bf464d2"><path d="M 127.710938 7.875 L 363.804688 119.144531 L 247.097656 366.769531 L 11.003906 255.5 Z M 127.710938 7.875 " clip-rule="nonzero"/></clipPath><clipPath id="f954f01443"><path d="M 241 77 L 289 77 L 289 124 L 241 124 Z M 241 77 " clip-rule="nonzero"/></clipPath><clipPath id="68bfbfd384"><path d="M 127.710938 7.875 L 363.804688 119.144531 L 247.097656 366.769531 L 11.003906 255.5 Z M 127.710938 7.875 " clip-rule="nonzero"/></clipPath><clipPath id="ef519c169c"><path d="M 127.710938 7.875 L 363.804688 119.144531 L 247.097656 366.769531 L 11.003906 255.5 Z M 127.710938 7.875 " clip-rule="nonzero"/></clipPath><clipPath id="b27f8158c5"><path d="M 80 84 L 221 84 L 221 312 L 80 312 Z M 80 84 " clip-rule="nonzero"/></clipPath><clipPath id="6d67c7f0ad"><path d="M 127.710938 7.875 L 363.804688 119.144531 L 247.097656 366.769531 L 11.003906 255.5 Z M 127.710938 7.875 " clip-rule="nonzero"/></clipPath><clipPath id="9bf4e9c323"><path d="M 127.710938 7.875 L 363.804688 119.144531 L 247.097656 366.769531 L 11.003906 255.5 Z M 127.710938 7.875 " clip-rule="nonzero"/></clipPath><clipPath id="7260820913"><path d="M 101.773438 63.03125 L 220.808594 119.132812 L 129.992188 311.824219 L 10.957031 255.71875 Z M 101.773438 63.03125 " clip-rule="nonzero"/></clipPath><clipPath id="e68d12389d"><path d="M 101.773438 63.03125 L 220.808594 119.132812 L 130.09375 311.609375 L 11.054688 255.503906 Z M 101.773438 63.03125 " clip-rule="nonzero"/></clipPath><clipPath id="05d7707fa2"><path d="M 129 220 L 316 220 L 316 312 L 129 312 Z M 129 220 " clip-rule="nonzero"/></clipPath><clipPath id="7fd10e873c"><path d="M 127.710938 7.875 L 363.804688 119.144531 L 247.097656 366.769531 L 11.003906 255.5 Z M 127.710938 7.875 " clip-rule="nonzero"/></clipPath><clipPath id="fb8d1b1638"><path d="M 127.710938 7.875 L 363.804688 119.144531 L 247.097656 366.769531 L 11.003906 255.5 Z M 127.710938 7.875 " clip-rule="nonzero"/></clipPath><clipPath id="dc3ee708dc"><path d="M 198.828125 165.039062 L 316.160156 220.339844 L 247.042969 366.988281 L 129.710938 311.6875 Z M 198.828125 165.039062 " clip-rule="nonzero"/></clipPath><clipPath id="f43484eb12"><path d="M 198.828125 165.039062 L 316.074219 220.300781 L 247.054688 366.734375 L 129.808594 311.476562 Z M 198.828125 165.039062 " clip-rule="nonzero"/></clipPath></defs><g clip-path="url(#23b656a045)"><g clip-path="url(#5944a254e1)"><g clip-path="url(#c56bf464d2)"><path fill="#a6a6a6" d="M 250.832031 210.144531 C 273.753906 157.402344 272.933594 155.058594 222.082031 128.246094 C 274.804688 151.160156 277.148438 150.335938 303.96875 99.464844 C 281.046875 152.207031 281.867188 154.546875 332.722656 181.363281 C 279.996094 158.449219 277.65625 159.273438 250.832031 210.144531 " fill-opacity="1" fill-rule="nonzero"/></g></g></g><g clip-path="url(#f954f01443)"><g clip-path="url(#68bfbfd384)"><g clip-path="url(#ef519c169c)"><path fill="#59788e" d="M 253.945312 123.9375 C 263.5 101.953125 263.15625 100.980469 241.960938 89.800781 C 263.9375 99.351562 264.910156 99.011719 276.09375 77.804688 C 266.539062 99.789062 266.882812 100.765625 288.078125 111.941406 C 266.101562 102.390625 265.125 102.734375 253.945312 123.9375 " fill-opacity="1" fill-rule="nonzero"/></g></g></g><g clip-path="url(#b27f8158c5)"><g clip-path="url(#6d67c7f0ad)"><g clip-path="url(#9bf4e9c323)"><g clip-path="url(#7260820913)"><g clip-path="url(#e68d12389d)"><path fill="#59788e" d="M 129.828125 311.484375 L 80.910156 107.289062 L 147.113281 84.464844 L 220.519531 119.0625 L 145.601562 112.214844 L 111.386719 124.011719 L 147.378906 274.25 L 129.828125 311.484375 " fill-opacity="1" fill-rule="nonzero"/></g></g></g></g></g><g clip-path="url(#05d7707fa2)"><g clip-path="url(#7fd10e873c)"><g clip-path="url(#fb8d1b1638)"><g clip-path="url(#dc3ee708dc)"><g clip-path="url(#f43484eb12)"><path fill="#a6a6a6" d="M 129.828125 311.484375 L 147.378906 274.25 L 316 220.449219 L 129.828125 311.484375 " fill-opacity="1" fill-rule="nonzero"/></g></g></g></g></g></svg>
